<svg width="128" height="127" viewBox="0 0 128 127" fill="none" xmlns="http://www.w3.org/2000/svg">
<path fill-rule="evenodd" clip-rule="evenodd" d="M0.992188 1C0.992188 0.447717 1.4399 0 1.99219 0H126.726C127.279 0 127.726 0.447715 127.726 1V125.735C127.726 126.287 127.279 126.735 126.726 126.735H1.99219C1.4399 126.735 0.992188 126.287 0.992188 125.735V1ZM26.9668 59.3865L27.0096 30.3793C34.6078 29.8767 55.4514 30.3784 64.7976 30.3128C78.6293 30.2163 88.133 28.8361 94.6068 38.3717C100.971 47.7461 97.1878 59.4667 89.1226 64.4211C84.9748 66.9693 82.1462 67.1405 77.5141 67.1741C75.2308 67.1914 75.2727 67.3462 74.0782 66.078C72.19 64.076 65.6315 57.9654 64.6838 56.4214C65.413 54.9684 72.8537 48.7758 73.8925 46.7064L43.5188 46.7237L43.5152 77.0903C44.9208 76.4657 53.1599 67.5602 53.2592 67.4272C55.5789 69.7369 67.9203 81.8526 69.6436 83.494C67.3622 85.8046 61.5957 91.3763 59.5746 93.1917C56.0341 89.7367 30.023 62.4583 26.9668 59.3865ZM11.5829 113.885L39.0797 113.822C37.9035 112.566 12.8329 87.1876 11.6002 86.4319L11.5829 113.885ZM69.6436 83.494C71.4335 84.8624 73.3226 87.0301 74.9649 88.6843C76.7256 90.4577 78.2542 91.9908 80.0295 93.7479L95.4999 109.283C96.4477 110.229 97.1915 110.946 98.1182 111.886C99.0787 112.859 99.4046 113.751 101.01 113.895L121.682 113.866C121.069 112.619 108.058 99.7912 105.654 97.4951L97.3908 89.4381C95.4617 87.4607 90.3671 82.8395 89.4958 81.2299L90.6557 80.649C96.0034 78.3667 99.95 76.6196 104.233 71.7034C112.838 61.8273 116 48.1422 110.536 35.5058C107.893 29.3951 104.399 25.4458 100.174 22.0299C88.9869 12.9824 75.9828 14.9497 59.2496 14.9588C43.4114 14.967 27.4011 15.1864 11.5838 14.9452C11.7905 30.676 11.3899 46.6901 11.6129 62.298C11.6967 68.1182 10.4157 65.8959 17.0298 72.5264C27.5822 83.108 37.8242 93.6059 48.5042 104.077C48.0398 105.091 44.8525 108.031 43.8939 108.962C42.4063 110.404 40.2796 112.225 39.2336 113.882L69.6928 113.862L69.6436 83.494Z" fill="#FD2F70"/>
</svg>
