<svg width="42" height="43" viewBox="0 0 42 43" fill="none" xmlns="http://www.w3.org/2000/svg">
<path fill-rule="evenodd" clip-rule="evenodd" d="M0 1.33338C0 0.78109 0.447715 0.333374 1 0.333374H41C41.5523 0.333374 42 0.781089 42 1.33337V41.3334C42 41.8857 41.5523 42.3334 41 42.3334H1C0.447716 42.3334 0 41.8857 0 41.3334V1.33338ZM8.60806 20.0142L8.62224 10.4011C11.1403 10.2346 18.0479 10.4008 21.1453 10.3791C25.7291 10.3471 28.8787 9.8897 31.0241 13.0498C33.1334 16.1565 31.8795 20.0407 29.2066 21.6826C27.832 22.5271 26.8946 22.5838 25.3595 22.595C24.6029 22.6007 24.6167 22.652 24.2209 22.2317C23.5951 21.5683 21.4216 19.5432 21.1076 19.0315C21.3492 18.55 23.8151 16.4977 24.1593 15.8119L14.0934 15.8177L14.0922 25.8812C14.5581 25.6742 17.2885 22.7229 17.3214 22.6788C18.0902 23.4443 22.1801 27.4594 22.7513 28.0034C21.9952 28.7691 20.0842 30.6156 19.4144 31.2172C18.241 30.0722 9.6209 21.0321 8.60806 20.0142ZM3.50978 38.0751L12.6223 38.0542C12.2325 37.6379 3.92403 29.2274 3.51551 28.977L3.50978 38.0751ZM22.7513 28.0034C23.3444 28.4569 23.9705 29.1752 24.5148 29.7234C25.0983 30.3112 25.6048 30.8193 26.1932 31.4016L31.3201 36.5499C31.6342 36.8634 31.8807 37.1011 32.1878 37.4125C32.5061 37.735 32.6141 38.0307 33.146 38.0784L39.9969 38.0687C39.7936 37.6554 35.4819 33.4043 34.6851 32.6434L31.9468 29.9733C31.3074 29.3179 29.6191 27.7865 29.3303 27.2531L29.7147 27.0606C31.487 26.3042 32.7949 25.7252 34.2144 24.096C37.0658 20.823 38.114 16.2877 36.3031 12.1C35.4273 10.075 34.2693 8.76614 32.8691 7.63413C29.1617 4.63574 24.8521 5.28773 19.3067 5.29075C14.0578 5.29347 8.75198 5.36618 3.51008 5.28623C3.57857 10.4995 3.44582 15.8065 3.51974 20.979C3.54749 22.9078 3.12299 22.1714 5.31491 24.3687C8.81201 27.8755 12.2062 31.3545 15.7456 34.8247C15.5917 35.1605 14.5354 36.1351 14.2177 36.4434C13.7247 36.9213 13.0199 37.525 12.6733 38.0739L22.7676 38.0675L22.7513 28.0034Z" fill="#FD2F70"/>
</svg>
