<svg width="20" height="20" viewBox="0 0 20 20" fill="none" xmlns="http://www.w3.org/2000/svg">
<path d="M10.0009 13.6083C8.00925 13.6083 6.39258 11.9916 6.39258 9.99993C6.39258 8.00827 8.00925 6.3916 10.0009 6.3916C11.9926 6.3916 13.6093 8.00827 13.6093 9.99993C13.6093 11.9916 11.9926 13.6083 10.0009 13.6083ZM10.0009 7.6416C8.70092 7.6416 7.64258 8.69993 7.64258 9.99993C7.64258 11.2999 8.70092 12.3583 10.0009 12.3583C11.3009 12.3583 12.3593 11.2999 12.3593 9.99993C12.3593 8.69993 11.3009 7.6416 10.0009 7.6416Z" fill="#7D7D7D"/>
<path d="M10.0004 17.5166C6.86708 17.5166 3.90874 15.6833 1.87539 12.4999C0.992056 11.1249 0.992056 8.88328 1.87539 7.49994C3.91707 4.31661 6.87542 2.48328 10.0004 2.48328C13.1254 2.48328 16.0838 4.31661 18.1171 7.49994C19.0005 8.87494 19.0005 11.1166 18.1171 12.4999C16.0838 15.6833 13.1254 17.5166 10.0004 17.5166ZM10.0004 3.73328C7.30875 3.73328 4.73374 5.34994 2.93373 8.17494C2.30873 9.14994 2.30873 10.8499 2.93373 11.8249C4.73374 14.6499 7.30875 16.2666 10.0004 16.2666C12.6921 16.2666 15.2671 14.6499 17.0671 11.8249C17.6921 10.8499 17.6921 9.14994 17.0671 8.17494C15.2671 5.34994 12.6921 3.73328 10.0004 3.73328Z" fill="#7D7D7D"/>
</svg>
