<svg width="16" height="16" viewBox="0 0 16 16" fill="none" xmlns="http://www.w3.org/2000/svg">
<path fill-rule="evenodd" clip-rule="evenodd" d="M14.6764 1.82305C14.2562 1.40283 13.6862 1.16675 13.0919 1.16675H2.90676C2.31247 1.16675 1.74253 1.40283 1.32231 1.82305C0.902093 2.24327 0.666016 2.81321 0.666016 3.40749V13.5927C0.666016 14.187 0.902093 14.7569 1.32231 15.1771C1.74253 15.5973 2.31247 15.8334 2.90676 15.8334H13.0919C13.6862 15.8334 14.2562 15.5973 14.6764 15.1771C15.0966 14.7569 15.3327 14.187 15.3327 13.5927V3.40749C15.3327 2.81321 15.0966 2.24327 14.6764 1.82305ZM2.90676 2.38897H13.0919C13.6542 2.38897 14.1105 2.84527 14.1105 3.40749V13.5927C14.1105 14.1549 13.6542 14.6112 13.0919 14.6112H2.90676C2.34453 14.6112 1.88824 14.1549 1.88824 13.5927V3.40749C1.88824 2.84527 2.34453 2.38897 2.90676 2.38897ZM11.436 5.41827L6.16412 10.6901L4.15152 8.67753L4.08308 8.61805C3.95906 8.52708 3.80529 8.48621 3.65247 8.50362C3.49964 8.52103 3.359 8.59542 3.25862 8.71196C3.15823 8.82849 3.10548 8.9786 3.11089 9.13231C3.11631 9.28603 3.17948 9.43205 3.28782 9.54124L5.73227 11.9857L5.80071 12.0452C5.91843 12.1321 6.06344 12.1739 6.20938 12.163C6.35532 12.1521 6.4925 12.0892 6.59597 11.9857L12.2997 6.28198L12.3592 6.21353C12.4501 6.08951 12.491 5.93574 12.4736 5.78292C12.4562 5.6301 12.3818 5.48946 12.2652 5.38907C12.1487 5.28868 11.9986 5.23593 11.8449 5.24135C11.6912 5.24676 11.5452 5.30994 11.436 5.41827Z" fill="#707070"/>
</svg>
