<?xml version="1.0" encoding="UTF-8" standalone="no"?>
<svg
   width="16"
   height="16"
   viewBox="0 0 16 16"
   fill="none"
   version="1.1"
   id="svg892"
   sodipodi:docname="unchecked.svg"
   inkscape:version="1.1.2 (0a00cf5339, 2022-02-04)"
   xmlns:inkscape="http://www.inkscape.org/namespaces/inkscape"
   xmlns:sodipodi="http://sodipodi.sourceforge.net/DTD/sodipodi-0.dtd"
   xmlns="http://www.w3.org/2000/svg"
   xmlns:svg="http://www.w3.org/2000/svg">
  <defs
     id="defs896" />
  <sodipodi:namedview
     id="namedview894"
     pagecolor="#ffffff"
     bordercolor="#000000"
     borderopacity="0.25"
     inkscape:pageshadow="2"
     inkscape:pageopacity="0.0"
     inkscape:pagecheckerboard="0"
     showgrid="false"
     inkscape:zoom="29.117647"
     inkscape:cx="8.0020202"
     inkscape:cy="8.5"
     inkscape:window-width="1366"
     inkscape:window-height="704"
     inkscape:window-x="0"
     inkscape:window-y="0"
     inkscape:window-maximized="1"
     inkscape:current-layer="svg892" />
  <path
     fill-rule="evenodd"
     clip-rule="evenodd"
     d="M 14.6764,1.82305 C 14.2562,1.40283 13.6862,1.16675 13.0919,1.16675 H 2.90676 c -0.59429,0 -1.16423,0.23608 -1.58445,0.6563 C 0.902093,2.24327 0.666016,2.81321 0.666016,3.40749 V 13.5927 c 0,0.5943 0.236077,1.1642 0.656294,1.5844 0.42022,0.4202 0.99016,0.6563 1.58445,0.6563 H 13.0919 c 0.5943,0 1.1643,-0.2361 1.5845,-0.6563 0.4202,-0.4202 0.6563,-0.9901 0.6563,-1.5844 V 3.40749 c 0,-0.59428 -0.2361,-1.16422 -0.6563,-1.58444 z M 2.90676,2.38897 H 13.0919 c 0.5623,0 1.0186,0.4563 1.0186,1.01852 V 13.5927 c 0,0.5622 -0.4563,1.0185 -1.0186,1.0185 H 2.90676 c -0.56223,0 -1.01852,-0.4563 -1.01852,-1.0185 V 3.40749 c 0,-0.56222 0.45629,-1.01852 1.01852,-1.01852 z"
     fill="#707070"
     id="path890"
     sodipodi:nodetypes="ssscssssssssssssssssss" />
</svg>
